<svg width="12" height="13" viewBox="0 0 12 13" fill="none" xmlns="http://www.w3.org/2000/svg">
<rect width="12" height="13" fill="#A4A4A4"/>
<g id="Dashboard - Toggle Menu - Dark Theme" clip-path="url(#clip0_0_1)">
<rect width="1512" height="982" transform="translate(-240 -240)" fill="#1F214A"/>
<rect id="Rectangle 17" x="-56" y="-176" width="1328" height="918" fill="white" fill-opacity="0.16"/>
<rect id="Rectangle 21" x="-24" y="-118.5" width="298" height="157" rx="8" fill="#1F214A"/>
<g id="Frame 216">
<rect x="-4" y="-5.5" width="70" height="24" rx="4" fill="#2CC483"/>
<g id="Frame 216_2">
<g id="octicon:arrow-up-16">
<path id="Vector" d="M2.16324 6.61505C2.05871 6.51039 2 6.36852 2 6.22061C2 6.07269 2.05871 5.93082 2.16324 5.82616L5.32622 2.66318C5.43088 2.55865 5.57275 2.49994 5.72067 2.49994C5.86858 2.49994 6.01045 2.55865 6.11511 2.66318L9.27809 5.82616C9.37664 5.93204 9.4303 6.07199 9.4278 6.21661C9.4253 6.36123 9.36684 6.49924 9.2647 6.60165C9.16229 6.70379 9.02427 6.76226 8.87966 6.76476C8.73504 6.76725 8.59509 6.71359 8.48921 6.61505L6.27884 4.40468V9.94177C6.27884 10.0898 6.22003 10.2318 6.11536 10.3365C6.01068 10.4411 5.8687 10.4999 5.72067 10.4999C5.57263 10.4999 5.43066 10.4411 5.32598 10.3365C5.2213 10.2318 5.16249 10.0898 5.16249 9.94177V4.40468L2.95213 6.61505C2.84747 6.71958 2.7056 6.77829 2.55768 6.77829C2.40977 6.77829 2.2679 6.71958 2.16324 6.61505Z" fill="white"/>
</g>
</g>
</g>
</g>
<defs>
<clipPath id="clip0_0_1">
<rect width="1512" height="982" fill="white" transform="translate(-240 -240)"/>
</clipPath>
</defs>
</svg>
