<svg width="12" height="13" viewBox="0 0 12 13" fill="none" xmlns="http://www.w3.org/2000/svg">
<rect width="12" height="13" fill="#A4A4A4"/>
<g id="Dashboard - Toggle Menu - Dark Theme" clip-path="url(#clip0_0_1)">
<rect width="1512" height="982" transform="translate(-562 -240)" fill="#1F214A"/>
<rect id="Rectangle 17" x="-378" y="-176" width="1328" height="918" fill="white" fill-opacity="0.16"/>
<rect id="Rectangle 21" x="-24" y="-118.5" width="298" height="157" rx="8" fill="#1F214A"/>
<g id="Frame 216">
<rect x="-4" y="-5.5" width="52" height="24" rx="4" fill="#FF5E75"/>
<g id="Frame 216_2">
<g id="octicon:arrow-up-16">
<path id="Vector" d="M9.83676 6.38495C9.94129 6.48961 10 6.63148 10 6.77939C10 6.92731 9.94129 7.06918 9.83676 7.17384L6.67378 10.3368C6.56912 10.4413 6.42725 10.5001 6.27933 10.5001C6.13142 10.5001 5.98955 10.4413 5.88489 10.3368L2.72191 7.17384C2.62336 7.06796 2.5697 6.92801 2.5722 6.78339C2.5747 6.63877 2.63316 6.50076 2.7353 6.39835C2.83771 6.29621 2.97573 6.23774 3.12034 6.23524C3.26496 6.23275 3.40491 6.28641 3.51079 6.38495L5.72116 8.59532L5.72116 3.05823C5.72116 2.9102 5.77997 2.76822 5.88464 2.66355C5.98932 2.55887 6.1313 2.50006 6.27933 2.50006C6.42737 2.50006 6.56934 2.55887 6.67402 2.66355C6.7787 2.76822 6.83751 2.9102 6.83751 3.05823L6.83751 8.59532L9.04787 6.38495C9.15253 6.28042 9.2944 6.22171 9.44232 6.22171C9.59023 6.22171 9.7321 6.28042 9.83676 6.38495Z" fill="white"/>
</g>
</g>
</g>
</g>
<defs>
<clipPath id="clip0_0_1">
<rect width="1512" height="982" fill="white" transform="translate(-562 -240)"/>
</clipPath>
</defs>
</svg>
